<svg xmlns="http://www.w3.org/2000/svg" viewBox="0 0 84.51 20.52"><defs><style>.cls-1{fill:#cfe49d;}.cls-2{fill:#b8d871;}.cls-3{fill:#9fcc47;}.cls-4{fill:#006978;}</style></defs><g data-name="Layer 2"><g data-name="Layer 1"><path class="cls-1" d="m18.72 15.53a2.21 2.21 0 0 1-1.67 1.08h-0.21v3.92l2.47-0.26v-6.92a4.65 4.65 0 0 1-0.59 2.18z"></path><path class="cls-2" d="M19.31,13.35a4.65,4.65,0,0,1-.59,2.18,2.21,2.21,0,0,1-1.57,1.06l-1,1.52a10.51,10.51,0,0,1-.78,1.77l2.46-.37a9.75,9.75,0,0,0,.8-1.84,13.06,13.06,0,0,0,.68-4.32Z"></path><path class="cls-3" d="M18.72,15.53a2.21,2.21,0,0,1-1.67,1.08,2.3,2.3,0,0,1-.8-.14,4.33,4.33,0,0,1-1,1.32,2.83,2.83,0,0,1-1.13.62l2.48-.36a3.47,3.47,0,0,0,2-1.74,7.26,7.26,0,0,0,.69-2.95A4.67,4.67,0,0,1,18.72,15.53Z"></path><path class="cls-3" d="M13.49,16.67l2.43-.36a2.11,2.11,0,0,0,1.13.3L14.69,17A2.09,2.09,0,0,1,13.49,16.67Z"></path><path class="cls-3" d="M3.91,4.6a3,3,0,0,1,2.38.89,4.2,4.2,0,0,1,.77,2.42c0,.46.05,1,.05,1.7L6,9.77H2.63A2.35,2.35,0,0,0,3,11.2a1.49,1.49,0,0,0,1.27.48,6.7,6.7,0,0,0,2.2-.47L7,12.73a6.45,6.45,0,0,1-3.2.87C1.25,13.6,0,12.11,0,9.14A5.17,5.17,0,0,1,1,5.82,3.54,3.54,0,0,1,3.91,4.6Zm.55,2.29a.7.7,0,0,0-.73-.37.85.85,0,0,0-.8.42,2.53,2.53,0,0,0-.28,1.23h2A3.46,3.46,0,0,0,4.46,6.89Zm6.3,6.71a2.38,2.38,0,0,1-1.82-.71,2.73,2.73,0,0,1-.67-2v-6l2.48-.23v6c0,.7.32,1,1,1a1.39,1.39,0,0,0,1-.47V4.91l2.49-.23v6.24l.17,2.34-1.94.24-.21-1h-.06A3.14,3.14,0,0,1,10.76,13.6ZM34.34,1.71a3.09,3.09,0,0,1-1.8.71,2.8,2.8,0,0,1-1.73-.71L30,2.57A3.19,3.19,0,0,0,32.6,3.92a3,3,0,0,0,2.55-1.35ZM68,13.47c-.92,0-1.38-.5-1.38-1.51a1.44,1.44,0,0,1,.37-1,1.51,1.51,0,0,1,1.16-.4c.91,0,1.37.51,1.37,1.52a1.36,1.36,0,0,1-.37,1A1.49,1.49,0,0,1,68,13.47Zm6-8.53a2,2,0,0,1,1.32-.5,2.94,2.94,0,0,1,1.37.31l-.56,2a3.17,3.17,0,0,0-.86-.15A1.66,1.66,0,0,0,74,7a1.8,1.8,0,0,0-.51,1.38v4.87H71V7.16l-.18-2.4,1.88-.24L73,6.3h.06A2.78,2.78,0,0,1,73.9,4.94Zm7-.5a4.11,4.11,0,0,1,1.56.27,2.94,2.94,0,0,1,1,.71,3.3,3.3,0,0,1,.6,1.06A7.53,7.53,0,0,1,84.51,9a4.59,4.59,0,0,1-1.3,3.52,3.87,3.87,0,0,1-2.73.92,4.09,4.09,0,0,1-1.55-.27,2.86,2.86,0,0,1-1.05-.71,3.53,3.53,0,0,1-.62-1.06,7.37,7.37,0,0,1-.38-2.55,5.31,5.31,0,0,1,.57-2.51A3.56,3.56,0,0,1,80.92,4.44ZM81.86,9a6.44,6.44,0,0,0-.22-2,.94.94,0,0,0-1-.57.89.89,0,0,0-.94.55,6.9,6.9,0,0,0-.2,2,6.06,6.06,0,0,0,.23,2,.93.93,0,0,0,1,.57.88.88,0,0,0,.94-.54A6.91,6.91,0,0,0,81.86,9Z"></path><path class="cls-4" d="M28,11.61a2.64,2.64,0,0,0,.53.89l-1.78,1.31a5.87,5.87,0,0,1-1.06-1.45,4.83,4.83,0,0,1-.28-1.86V.27L27.86,0V10.45A4.63,4.63,0,0,0,28,11.61ZM23.34,5.55a5.23,5.23,0,0,1,.82,3.33A4.84,4.84,0,0,1,22.54,13a3,3,0,0,1-1.83.61,3.34,3.34,0,0,1-1.4-.25h0a4.65,4.65,0,0,1-.59,2.18,2.21,2.21,0,0,1-1.67,1.08,2.19,2.19,0,0,1-1.11-.29A3,3,0,0,0,16.68,15a5.79,5.79,0,0,0,.16-1.65v-6l-.18-2.38,1.92-.24.21,1.05h.07A2.67,2.67,0,0,1,21.11,4.6,2.82,2.82,0,0,1,23.34,5.55ZM21.51,9.14a6.35,6.35,0,0,0-.22-2,.87.87,0,0,0-.91-.61A1.25,1.25,0,0,0,19.31,7v4.41a1.73,1.73,0,0,0,1,.26,1,1,0,0,0,.91-.57A4.33,4.33,0,0,0,21.51,9.14ZM35.8,11.49a2.25,2.25,0,0,0,.53.8L34.92,13.6a2.59,2.59,0,0,1-.67-.53,2.86,2.86,0,0,1-.5-.66h0a3,3,0,0,1-2.44,1.19,2.09,2.09,0,0,1-2.32-2.4,2.39,2.39,0,0,1,.74-1.91,4.48,4.48,0,0,1,2.12-.87l1.4-.24V7.54A1.16,1.16,0,0,0,33,6.75a1.19,1.19,0,0,0-.87-.25A8.36,8.36,0,0,0,30,7l-.69-1.51a6.83,6.83,0,0,1,1.52-.58,7.58,7.58,0,0,1,1.92-.26,4.77,4.77,0,0,1,1.58.22,1.7,1.7,0,0,1,.92.67,2.64,2.64,0,0,1,.37.88,5.6,5.6,0,0,1,.09,1.1v3A3.24,3.24,0,0,0,35.8,11.49ZM33.22,9.76a5.12,5.12,0,0,0-1.49.41.87.87,0,0,0-.45.82.75.75,0,0,0,.84.85,1.57,1.57,0,0,0,1.1-.43Zm31.63,1.43a6.16,6.16,0,0,1-2.16.49,1.4,1.4,0,0,1-1.27-.6,3.68,3.68,0,0,1-.4-2,6.16,6.16,0,0,1,.23-2A.82.82,0,0,1,62,6.52c.36,0,.6.1.7.29A3.24,3.24,0,0,1,62.89,8L65.24,8a4.23,4.23,0,0,0-.61-2.53,2.85,2.85,0,0,0-2.41-.82A3.44,3.44,0,0,0,59.4,5.84a5.2,5.2,0,0,0-1,3.38c0,2.92,1.23,4.38,3.71,4.38a5.6,5.6,0,0,0,3.27-.94Zm-23.72.5a.87.87,0,0,1-.78-.32,2.12,2.12,0,0,1-.22-1.15V6.52H42l.29-1.79H40.13V2.45l-2.33.7-.1,1.61-1.07.15-.22,1.61h1.24v3.59a5.35,5.35,0,0,0,.5,2.67c.32.55,1,.82,2.09.82a4.58,4.58,0,0,0,1.25-.19,2.9,2.9,0,0,0,1-.44l-.43-1.44A5,5,0,0,1,41.13,11.69Zm14.48-3c-.54-.22-.89-.38-1-.46l-.38-.17a1.74,1.74,0,0,1-.34-.18l-.24-.2a.83.83,0,0,1-.18-.25,1.13,1.13,0,0,1,0-.37.61.61,0,0,1,.22-.45.83.83,0,0,1,.58-.21c.65,0,1,.37,1.09,1.1l2.16-.42a2.62,2.62,0,0,0-.92-1.84A3.4,3.4,0,0,0,54.3,4.6a3.69,3.69,0,0,0-2.36.73A2.28,2.28,0,0,0,51,7.23,2.17,2.17,0,0,0,51.71,9,9,9,0,0,0,54,10.24a3.88,3.88,0,0,1,.56.31.62.62,0,0,1,.36.55.53.53,0,0,1-.25.48,1.1,1.1,0,0,1-.62.16,7,7,0,0,1-2.38-.69l-.89,1.6a6.49,6.49,0,0,0,3.27.95,3.74,3.74,0,0,0,2.53-.78,2.34,2.34,0,0,0,.89-1.77A2,2,0,0,0,57,9.54,4.43,4.43,0,0,0,55.61,8.7ZM49,9.77H45.64A2.36,2.36,0,0,0,46,11.2a1.49,1.49,0,0,0,1.27.48,6.8,6.8,0,0,0,2.21-.47l.5,1.52a6.42,6.42,0,0,1-3.2.87Q43,13.6,43,9.14a5.17,5.17,0,0,1,1-3.32A3.54,3.54,0,0,1,46.91,4.6a3,3,0,0,1,2.38.89,4.2,4.2,0,0,1,.77,2.42c0,.46,0,1,0,1.7Zm-1.34-1.6a3.46,3.46,0,0,0-.16-1.28.7.7,0,0,0-.73-.37.85.85,0,0,0-.8.42,2.53,2.53,0,0,0-.28,1.23Z"></path></g></g></svg>